<svg xmlns="http://www.w3.org/2000/svg" xmlns:xlink="http://www.w3.org/1999/xlink" viewBox="0 0 452 452">
  <defs>
    <style>
      .a {
        fill: url(#a);
      }

      .b {
        fill: url(#b);
      }

      .c {
        fill: #b4b0ab;
      }

      .d {
        fill: url(#c);
      }

      .e {
        fill: url(#d);
      }

      .f {
        fill: url(#e);
      }

      .g {
        fill: url(#f);
      }

      .h {
        fill: #ffc735;
      }

      .i {
        fill: #2e76bb;
      }

      .j {
        fill: url(#g);
      }
    </style>
    <linearGradient id="a" x1="36.06561" y1="233.1835" x2="416.57399" y2="233.1835" gradientUnits="userSpaceOnUse">
      <stop offset="0" stop-color="#a4ceee"/>
      <stop offset="0.6529" stop-color="#9ecbec"/>
      <stop offset="1" stop-color="#98c8eb"/>
    </linearGradient>
    <linearGradient id="b" x1="574" y1="594" x2="575" y2="594" gradientTransform="translate(35864 -34086.37959) rotate(90) scale(60)" gradientUnits="userSpaceOnUse">
      <stop offset="0" stop-color="#7a7674"/>
      <stop offset="1" stop-color="#b4b0ab"/>
    </linearGradient>
    <linearGradient id="c" x1="219.07738" y1="339.46992" x2="234.12297" y2="339.46992" gradientTransform="matrix(-1, 0, 0, 1, 451, 0)" gradientUnits="userSpaceOnUse">
      <stop offset="0" stop-color="#fff"/>
      <stop offset="1" stop-color="#f9f9f8"/>
    </linearGradient>
    <linearGradient id="d" x1="574" y1="594" x2="575" y2="594" gradientTransform="translate(204171.98248 211092.9819) rotate(180) scale(354.99997)" xlink:href="#c"/>
    <linearGradient id="e" x1="336.41356" y1="116.32941" x2="198.70278" y2="416.5053" gradientUnits="userSpaceOnUse">
      <stop offset="0" stop-color="#005b9f"/>
      <stop offset="0.07966" stop-color="#005b9f"/>
      <stop offset="0.11024" stop-color="#065fa3"/>
      <stop offset="0.27522" stop-color="#2370b4"/>
      <stop offset="0.36962" stop-color="#2e76bb"/>
      <stop offset="1" stop-color="#2e76bb"/>
    </linearGradient>
    <linearGradient id="f" x1="226.48462" y1="162.51588" x2="226.48462" y2="220.79121" gradientUnits="userSpaceOnUse">
      <stop offset="0" stop-color="#e3e1e0"/>
      <stop offset="0.41009" stop-color="#e1dfde"/>
      <stop offset="0.6249" stop-color="#dad8d6"/>
      <stop offset="0.79441" stop-color="#cecbc8"/>
      <stop offset="0.9394" stop-color="#bdbab5"/>
      <stop offset="1" stop-color="#b4b0ab"/>
    </linearGradient>
    <linearGradient id="g" x1="280.20648" y1="-19.85809" x2="151.58369" y2="260.93961" gradientUnits="userSpaceOnUse">
      <stop offset="0" stop-color="#2e76bb"/>
      <stop offset="0.38886" stop-color="#2e76bb"/>
      <stop offset="0.52945" stop-color="#2b74b9"/>
      <stop offset="0.62929" stop-color="#226fb4"/>
      <stop offset="0.71624" stop-color="#1266aa"/>
      <stop offset="0.78469" stop-color="#005b9f"/>
      <stop offset="1" stop-color="#005b9f"/>
    </linearGradient>
  </defs>
  <title>StaySecureWinUpdatesArtboard 1 copy 4</title>
  <circle class="a" cx="226.3198" cy="233.1835" r="190.25419"/>
  <rect class="b" x="187" y="326.62061" width="74" height="60"/>
  <path class="c" d="M413.46857,245.16406a198.48239,198.48239,0,0,0-7.05738-70.38873,193.83184,193.83184,0,0,0-28.28881-58.59326L374,112H48.46875A12.47656,12.47656,0,0,0,36,124.48438V346.51563A12.47656,12.47656,0,0,0,48.46875,359H366.40283a200.98672,200.98672,0,0,0,47.06574-113.83594Z"/>
  <circle class="d" cx="224.39982" cy="339.46992" r="7.52279"/>
  <rect class="e" x="47.00317" y="123.0105" width="354.99365" height="199.979"/>
  <path class="f" d="M416.31592,178.41357a193.83741,193.83741,0,0,0-28.28858-58.59326s-20.12451,3.57764-18.72119,5.92139l.51074.83789A170.438,170.438,0,0,1,392.36914,245.002a166.22271,166.22271,0,0,1-20.6831,55.84082,162.21664,162.21664,0,0,1-38.42579,44.11231,160.49692,160.49692,0,0,1-50.46337,27.23,156.74224,156.74224,0,0,1-55.76514,7.35986,152.52116,152.52116,0,0,1-53.689-12.41064C156.5874,359.86133,130.85889,339.5127,118,327c-13.61328-13.24658-24.9082-2.90381-38.15479,10.70947s-23.42871,25.34229-9.81542,38.58887q1.199,1.16674,2.479,2.19336l.54053.4292c20.41455,16.30566,54.124,38.85889,78.68554,46.79053a212.44625,212.44625,0,0,0,148.99707-6.90088,207.39539,207.39539,0,0,0,61.60889-41.21485,202.85782,202.85782,0,0,0,42.51367-59.30713,200.66115,200.66115,0,0,0,18.519-69.48632A198.47438,198.47438,0,0,0,416.31592,178.41357Z"/>
  <g>
    <path class="g" d="M267.82471,180.52148a41.43853,41.43853,0,0,0-49.22412-40.89257c-18.5503,3.458-33.67774,21.44922-33.67774,40.36621l.21778,53.11523c0,18.917,14.90966,38.834,33.46,42.29248a41.62,41.62,0,0,0,49.4458-40.89209Zm-15.81641,53.667a24.88275,24.88275,0,1,1-49.76416-.19727V181.03809a25.1826,25.1826,0,0,1,21.18457-24.86133c15.21192-2.24024,28.57959,9.31982,28.57959,24.1499Z"/>
    <path class="h" d="M270.05728,299.63938,181.84379,300a9.71945,9.71945,0,0,1-9.67607-9.94256l-.26552-64.75937a9.64022,9.64022,0,0,1,9.94272-9.5797l88.21349-.36133a9.71945,9.71945,0,0,1,9.67607,9.94256L280,290.059A9.64081,9.64081,0,0,1,270.05728,299.63938Z"/>
  </g>
  <path class="i" d="M407.07263,40.07635,355.17548,95.80878,308,105.30878l19.84753,19.84753L303.527,151.27411A4,4,0,0,0,306.45441,158H406a8,8,0,0,0,8-8V42.80231A4,4,0,0,0,407.07263,40.07635Z"/>
  <path class="i" d="M146.473,295.72591,42.92736,406.92362A4,4,0,0,1,36,404.19771V297a8,8,0,0,1,8-8h99.54559A4,4,0,0,1,146.473,295.72591Z"/>
  <path class="j" d="M381,78.69232q-1.23559-1.20621-2.55762-2.26312L377.89948,76c-20.05958-15.97711-53.18854-39.12555-77.24512-47.03656a212.38826,212.38826,0,0,0-66.41394-10.65283q-3.90263,0-7.79657.14441C176.68506,20.00348,128.32959,40.1153,92.95123,73.038A206.12671,206.12671,0,0,0,60.06372,112h53.70056q3.5268-2.99286,7.202-5.78125a158.01168,158.01168,0,0,1,94.91858-32.062q5.12283,0,10.22992.3482a153.03629,153.03629,0,0,1,52.564,12.82117c16.3877,7.27551,41.66687,28.293,54.27039,40.59479,4.31445,4.21118,8.40826,5.96631,12.4126,5.96631,8.6123,0,16.80664-8.123,25.86425-17.40235C384.49512,102.89063,394.59424,91.96143,381,78.69232Z"/>
</svg>
