<svg xmlns="http://www.w3.org/2000/svg" xmlns:xlink="http://www.w3.org/1999/xlink" viewBox="0 0 1047 561"><defs><style>.cls-1{isolation:isolate;}.cls-2{fill:#b4e2fc;}.cls-3,.cls-4{fill:#00aeef;}.cls-4{opacity:0.3;}.cls-5{fill:#c8c6c4;}.cls-6{fill:#e1dfdd;}.cls-7{fill:#fff;}.cls-8{fill:#65cbae;}.cls-9{fill:#f3f2f1;}.cls-10{fill:#ff845c;}.cls-11{fill:#ffe487;}.cls-12{fill:url(#radial-gradient);}.cls-13{fill:#ffba07;}.cls-14{fill:#9a6541;}.cls-15{fill:url(#radial-gradient-2);}.cls-16{opacity:0.75;fill:url(#linear-gradient);}.cls-17{fill:#33312d;}.cls-18{fill:#d6d0e6;}.cls-19{fill:none;stroke:#fff;stroke-linecap:round;stroke-miterlimit:10;stroke-width:3.94px;}.cls-20{fill:#faf9f8;}.cls-21{fill:#b3afab;}.cls-22{fill:#dfba95;}.cls-23{fill:url(#radial-gradient-3);}.cls-24{fill:#bf8f67;}.cls-25{fill:#f9dbbd;}.cls-26{fill:#f9e868;}.cls-27{fill:url(#radial-gradient-4);}.cls-28{fill:#3a312e;}.cls-29{fill:#04a5f0;}.cls-30,.cls-31{fill:#7dcfff;}.cls-31{mix-blend-mode:multiply;}.cls-32{fill:#bf8f68;}.cls-33{fill:url(#radial-gradient-5);}.cls-34{fill:url(#New_Gradient_Swatch);}.cls-35{fill:#9b643d;}.cls-36{fill:#f8c954;}.cls-37{fill:#dfdedd;}.cls-38{fill:url(#radial-gradient-6);}</style><radialGradient id="radial-gradient" cx="-4301.85" cy="388.91" r="110.24" gradientTransform="matrix(-1, 0, 0, 1, -3539.03, 0)" gradientUnits="userSpaceOnUse"><stop offset="0" stop-color="#e6c651"/><stop offset="1" stop-color="#ffe487"/></radialGradient><radialGradient id="radial-gradient-2" cx="-2032.66" cy="1199.89" r="21.92" gradientTransform="matrix(-1, 0.04, 0.03, 0.88, -1319.46, -754.84)" gradientUnits="userSpaceOnUse"><stop offset="0" stop-color="#59453a"/><stop offset="1" stop-color="#9a6541" stop-opacity="0"/></radialGradient><linearGradient id="linear-gradient" x1="6662.86" y1="253.82" x2="6662.92" y2="210.84" gradientTransform="translate(-5925.23)" gradientUnits="userSpaceOnUse"><stop offset="0.01" stop-color="#48372d"/><stop offset="0.48" stop-color="#59453a"/><stop offset="1" stop-color="#9a6541"/></linearGradient><radialGradient id="radial-gradient-3" cx="7169.63" cy="467.67" r="24.38" gradientTransform="translate(-6864.12 33.99) rotate(-1.83)" gradientUnits="userSpaceOnUse"><stop offset="0" stop-color="#9b643d"/><stop offset="0.46" stop-color="#b88963"/><stop offset="1" stop-color="#dfba95"/></radialGradient><radialGradient id="radial-gradient-4" cx="301.84" cy="258.12" r="14.22" gradientUnits="userSpaceOnUse"><stop offset="0" stop-color="#9b643d"/><stop offset="0.67" stop-color="#b4825a" stop-opacity="0.31"/><stop offset="1" stop-color="#bf8f67" stop-opacity="0"/></radialGradient><radialGradient id="radial-gradient-5" cx="2089.73" cy="134.21" r="21.5" gradientTransform="matrix(-1.15, 0, 0, 1.13, 2904.67, 136.9)" gradientUnits="userSpaceOnUse"><stop offset="0" stop-color="#9b643d"/><stop offset="0.27" stop-color="#a46e47" stop-opacity="0.76"/><stop offset="0.87" stop-color="#ba8961" stop-opacity="0.14"/><stop offset="1" stop-color="#bf8f67" stop-opacity="0"/></radialGradient><radialGradient id="New_Gradient_Swatch" cx="-1786.65" cy="1227.21" r="21.92" gradientTransform="matrix(-1, 0.04, 0.03, 0.88, -1319.46, -754.84)" gradientUnits="userSpaceOnUse"><stop offset="0" stop-color="#9b643d"/><stop offset="0.27" stop-color="#a46e47" stop-opacity="0.76"/><stop offset="0.87" stop-color="#ba8961" stop-opacity="0.14"/><stop offset="1" stop-color="#bf8f67" stop-opacity="0"/></radialGradient><radialGradient id="radial-gradient-6" cx="540.71" cy="392.98" r="55.86" gradientUnits="userSpaceOnUse"><stop offset="0" stop-color="#5aabdb"/><stop offset="0.7" stop-color="#7dcfff"/></radialGradient></defs><title>Cortana-WindowsOOBE-Illustration-02</title><g class="cls-1"><g id="Layer_1" data-name="Layer 1"><path class="cls-2" d="M767.89,374.54a508.2,508.2,0,0,1,61.39,9.37c10.14,2.27,20.23,4.89,30.2,8a222.51,222.51,0,0,1,29.38,11.43c9.54,4.6,18.87,10,27.2,17.4a54.76,54.76,0,0,1,11,13.18,35.47,35.47,0,0,1,3.57,8.51,28.35,28.35,0,0,1-1.46,19.13,34.85,34.85,0,0,1-5,8A54.13,54.13,0,0,1,910.93,481a91,91,0,0,1-14.88,7.43,142.18,142.18,0,0,1-15.44,5.09,213.47,213.47,0,0,1-31.42,5.83c-10.52,1.21-21.08,1.83-31.56,2-21,.34-42.25-.7-63.26-5.1a184,184,0,0,1-30.92-9.17,217.71,217.71,0,0,1-28.74-14.13c-9.12-5.22-17.78-10.65-26.53-15.33-4.38-2.34-8.8-4.45-13.28-6.37a128.83,128.83,0,0,0-13.74-4.87,142.07,142.07,0,0,0-28.92-5.13,229.3,229.3,0,0,0-30-.25,270.56,270.56,0,0,0-59.69,9.83,296.16,296.16,0,0,0-28.84,9.86c-9.49,3.75-18.85,7.91-28.23,12.16-18.73,8.51-37.58,17.5-57.6,23.6a202.49,202.49,0,0,1-61.8,9.17,506.42,506.42,0,0,1-62.1-3.49,297.46,297.46,0,0,1-30.79-5.42,177.38,177.38,0,0,1-30-9.66,111.38,111.38,0,0,1-14.23-7.34,79.77,79.77,0,0,1-13-9.78,57.23,57.23,0,0,1-10.52-13,45.87,45.87,0,0,1-5.75-16.17,41.58,41.58,0,0,1,.89-17.48,42.66,42.66,0,0,1,8.16-15.57,56.68,56.68,0,0,1,5.93-6.25,76.58,76.58,0,0,1,6.62-5.25A94.7,94.7,0,0,1,215.54,388a138.39,138.39,0,0,1,15.05-6q7.64-2.55,15.4-4.41a290.94,290.94,0,0,1,31.19-5.6,477.43,477.43,0,0,1,62.69-3.39c20.87.09,41.67,1.17,62.4,2.8,5.18.41,10.36.87,15.53,1.35,5,.47,9.91.76,14.94.95,10.05.37,20.21.32,30.39.11,20.36-.46,40.8-1.71,61.22-3.36s40.82-3.67,61.2-6-18.38,22-59.8,24.85c-20.71,1.41-41.47,2.42-62.34,2.63-10.44.1-20.91,0-31.47-.59-5.26-.28-10.6-.68-15.91-1.27q-7.62-.84-15.26-1.58c-20.35-1.95-40.75-3.33-61.12-3.79a522.54,522.54,0,0,0-60.85,1.82A276.4,276.4,0,0,0,249,390.91a155.74,155.74,0,0,0-28.38,8.44c-2.26.93-4.43,2-6.58,3.06s-4.21,2.28-6.2,3.56a61.93,61.93,0,0,0-5.67,4.14,44.17,44.17,0,0,0-4.9,4.76,30.44,30.44,0,0,0-7.77,24.52c.93,9,5.7,17.48,12.47,24.27s15.3,12.19,24.33,16.45a166.23,166.23,0,0,0,28.49,10.14,267.7,267.7,0,0,0,30,5.94,440.06,440.06,0,0,0,61.31,4,194.17,194.17,0,0,0,30.4-2.22,190.88,190.88,0,0,0,29.61-7.14,274.49,274.49,0,0,0,28.43-11.27c9.3-4.28,18.51-8.84,27.74-13.47s18.57-9.17,28.12-13.36,19.28-8.06,29.25-11.36a279.71,279.71,0,0,1,61.65-12.9,228.81,228.81,0,0,1,31.8-1.08,151.35,151.35,0,0,1,32,4.58A143,143,0,0,1,660.66,437c5.07,2,10,4.26,14.76,6.68,9.54,4.85,18.43,10.29,27.24,15.24A220.29,220.29,0,0,0,729.43,472a177.21,177.21,0,0,0,28.26,8.56c19.38,4.17,39.54,5.53,59.76,5.47,10.14,0,20.2-.4,30.19-1.36S891.49,479,900.54,454c5.3-14.69-7.26-37.23-16-42a230.87,230.87,0,0,0-27.65-12.41c-9.51-3.62-19.25-6.75-29.1-9.54-19.69-5.65-39.83-10-60.1-13.7Z"/><path class="cls-2" d="M600.22,257.16c-7.38,1.6-14.87,2.77-22.36,3.78s-15,1.76-22.58,2.42c-15.1,1.18-30.27,1.79-45.45,1.56s-30.37-1-45.5-2.57a433.69,433.69,0,0,1-45.11-7.05,395.2,395.2,0,0,1-44.16-12,192.27,192.27,0,0,1-21.46-8.68,99.84,99.84,0,0,1-10.33-5.73,52.62,52.62,0,0,1-9.6-7.61,29,29,0,0,1-4-5.16,19.54,19.54,0,0,1-2.59-6.52,16.62,16.62,0,0,1,.24-7.23,20.25,20.25,0,0,1,2.86-6.2,36.26,36.26,0,0,1,8.78-8.71,78.34,78.34,0,0,1,10-6.12,114.6,114.6,0,0,1,10.49-4.77c3.55-1.42,7.12-2.73,10.74-3.92a193.09,193.09,0,0,1,22-5.77c-3.55,1.31-7.06,2.67-10.54,4.12s-6.94,2.9-10.34,4.48a162.34,162.34,0,0,0-19.72,10.43,73,73,0,0,0-8.8,6.38,32.43,32.43,0,0,0-6.71,7.63,13.09,13.09,0,0,0-1.64,4.11,9,9,0,0,0,.11,4,16,16,0,0,0,5,7.37,48.19,48.19,0,0,0,8.38,6,103.33,103.33,0,0,0,9.63,4.88,212.22,212.22,0,0,0,20.64,7.77q2.66.85,5.31,1.67l5.36,1.57c1.79.52,3.56,1.08,5.36,1.57l5.4,1.45c3.58,1,7.22,1.84,10.83,2.74s7.26,1.67,10.9,2.5c29.14,6.35,58.9,10,88.79,11.88l5.61.32,5.62.24c3.74.18,7.49.31,11.24.44,7.5.25,15,.26,22.52.29C570.11,258.72,585.16,258.27,600.22,257.16Z"/><path class="cls-3" d="M817.63,501.33c10.48-.2,21-.82,31.56-2a213.47,213.47,0,0,0,31.42-5.83,142.18,142.18,0,0,0,15.44-5.09A91,91,0,0,0,910.93,481a54.13,54.13,0,0,0,13.3-11.38,34.85,34.85,0,0,0,5-8,28.35,28.35,0,0,0,1.46-19.13,35.47,35.47,0,0,0-3.57-8.51,54.76,54.76,0,0,0-11-13.18c-8.33-7.38-17.66-12.8-27.2-17.4A222.51,222.51,0,0,0,859.48,392c-10-3.15-20.06-5.77-30.2-8a508.2,508.2,0,0,0-61.39-9.37l-.25,1.78c20.27,3.72,40.41,8.05,60.1,13.7,9.85,2.79,19.59,5.92,29.1,9.54A230.87,230.87,0,0,1,884.49,412c8.79,4.76,21.35,27.3,16,42-9,25.06-42.92,29.74-52.9,30.71s-20,1.33-30.19,1.36Z"/><path class="cls-2" d="M611.37,255.67c5.59-1.86,11.26-3.43,17-4.81s11.45-2.61,17.21-3.7c11.54-2.17,23.19-3.74,34.92-4.81,5.87-.51,11.75-.9,17.66-1.11s11.82-.28,17.75-.2,11.87.41,17.82.86,11.9,1.18,17.85,2.1,11.88,2.18,17.79,3.67a141.33,141.33,0,0,1,17.52,5.78,98.24,98.24,0,0,1,16.75,8.67c1.33.88,2.67,1.75,3.94,2.75s2.59,1.91,3.8,3l1.83,1.61c.61.53,1.17,1.14,1.75,1.71l1.72,1.75c.56.59,1.09,1.24,1.62,1.86a50.49,50.49,0,0,1,12.36,36.08,68.21,68.21,0,0,1-3.56,18,88.06,88.06,0,0,1-7.5,16.12c.25-1.45.52-2.9.81-4.32l.42-2.14.3-2.16c.2-1.44.47-2.85.63-4.28l.43-4.26a75.54,75.54,0,0,0-.37-16.58,46.1,46.1,0,0,0-4.65-14.86c-.64-1.1-1.16-2.24-1.9-3.27a29.83,29.83,0,0,0-2.17-3.07l-1.15-1.48c-.4-.48-.86-.92-1.28-1.38l-1.27-1.38-1.39-1.3c-7.42-6.84-17-11.6-27.18-15.12a142.18,142.18,0,0,0-15.73-4.48c-5.36-1.27-10.82-2.3-16.34-3.16-22.09-3.46-43.51-8.17-66.43-8.81S634.85,255.94,611.37,255.67Z"/><path class="cls-4" d="M617,454.4c-10.87,3.4-21.38,6.86-31.69,10.7A314.62,314.62,0,0,0,555.28,478c-4.86,2.38-9.64,4.93-14.29,7.68-2.38,1.3-4.61,2.82-7,4.2l-3.39,2.23c-1.16.71-2.25,1.52-3.37,2.29a230.74,230.74,0,0,0-25.74,20.95c.58-1.3,1.24-2.56,1.87-3.86l1-1.91,1.1-1.84c.74-1.23,1.5-2.45,2.28-3.67l2.5-3.51c.43-.58.85-1.17,1.3-1.73l1.37-1.67c.92-1.11,1.84-2.23,2.81-3.3,2-2.11,3.94-4.24,6.09-6.17s4.33-3.85,6.57-5.69c1.14-.9,2.29-1.77,3.46-2.63s2.35-1.69,3.55-2.5c2.38-1.67,4.88-3.12,7.34-4.64s5.06-2.81,7.66-4.08A139.69,139.69,0,0,1,583,456.83a133.12,133.12,0,0,1,17-2.51c2.85-.22,5.7-.37,8.56-.36A68.09,68.09,0,0,1,617,454.4Z"/><path class="cls-5" d="M321.87,115.69h10.4a22.91,22.91,0,0,1,22.91,22.91v0a22.91,22.91,0,0,1-22.91,22.91h-10.4a0,0,0,0,1,0,0V115.69A0,0,0,0,1,321.87,115.69Z" transform="matrix(0.96, 0.27, -0.27, 0.96, 49.37, -85.45)"/><rect class="cls-6" x="343.34" y="115.29" width="12.04" height="10.27" rx="5.13" transform="translate(216.44 -224.37) rotate(49.9)"/><circle class="cls-7" cx="322.47" cy="134.14" r="22.91"/><path class="cls-6" d="M322.46,111.23v3.94a19,19,0,0,1,5.08.7,19,19,0,0,1-5.05,37.24,19.16,19.16,0,0,1-5.09-.69,19,19,0,0,1,5.06-37.25v-3.94m0,0a22.93,22.93,0,1,0,6.14.84,22.91,22.91,0,0,0-6.14-.84Z"/><polyline class="cls-7" points="332.16 136.83 322.47 134.14 326.55 119.43"/><path class="cls-6" d="M332.16,138.8a1.93,1.93,0,0,1-.53-.07L322,136a2,2,0,0,1-1.38-2.42l4.08-14.71a2,2,0,1,1,3.8,1l-3.55,12.81,7.78,2.16a2,2,0,0,1-.52,3.87Z"/><rect class="cls-5" x="323.58" y="104.64" width="16.31" height="6.43" rx="3.22" transform="translate(40.9 -84.76) rotate(15.51)"/><path class="cls-8" d="M915.73,204.83a35.7,35.7,0,1,0-26.31,43.08A35.7,35.7,0,0,0,915.73,204.83ZM887.26,239a26.47,26.47,0,0,1-31.93-19.49,26.57,26.57,0,0,1,19.5-31.94A26.44,26.44,0,0,1,906.76,207,26.56,26.56,0,0,1,887.26,239Z"/><rect class="cls-8" x="896.91" y="235.39" width="9.82" height="35.14" transform="translate(-14.55 446.71) rotate(-27.61)"/><path class="cls-8" d="M911.7,286.11l-14.3-27.34,11.71-6.13L923.41,280a6.6,6.6,0,0,1-2.8,8.91h0A6.6,6.6,0,0,1,911.7,286.11Z"/><path class="cls-8" d="M917.56,180.32a2.62,2.62,0,0,1-.61-.55,2.7,2.7,0,0,1,.38-3.79l9.73-8a2.69,2.69,0,0,1,3.41,4.17l-9.73,8A2.69,2.69,0,0,1,917.56,180.32Z"/><path class="cls-8" d="M896.4,166a2.68,2.68,0,0,1-1.22-2.49l.9-10.38a2.69,2.69,0,1,1,5.36.46L900.55,164a2.7,2.7,0,0,1-2.92,2.45A2.65,2.65,0,0,1,896.4,166Z"/><path class="cls-8" d="M928.23,204.93A2.7,2.7,0,0,1,930,200l10.6,1.22a2.69,2.69,0,1,1-.61,5.35l-10.6-1.22A2.56,2.56,0,0,1,928.23,204.93Z"/><rect class="cls-9" x="470.62" y="94.77" width="90.38" height="78.53" transform="translate(55.39 -134.37) rotate(15.67)"/><rect class="cls-10" x="482.83" y="84.61" width="90.38" height="11.85" transform="translate(44.09 -139.28) rotate(15.67)"/><rect class="cls-6" x="486.66" y="97.97" width="10.65" height="10.65" transform="translate(46.2 -129.08) rotate(15.67)"/><rect class="cls-6" x="501.7" y="102.19" width="10.65" height="10.65" transform="translate(47.9 -132.98) rotate(15.67)"/><rect class="cls-6" x="516.74" y="106.41" width="10.65" height="10.65" transform="translate(49.6 -136.89) rotate(15.67)"/><rect class="cls-6" x="531.78" y="110.63" width="10.65" height="10.65" transform="translate(51.3 -140.8) rotate(15.67)"/><rect class="cls-6" x="546.83" y="114.85" width="10.65" height="10.65" transform="translate(53 -144.7) rotate(15.67)"/><rect class="cls-6" x="482.49" y="112.84" width="10.65" height="10.65" transform="translate(50.06 -127.4) rotate(15.67)"/><rect class="cls-6" x="497.53" y="117.06" width="10.65" height="10.65" transform="translate(51.76 -131.3) rotate(15.67)"/><rect class="cls-6" x="512.57" y="121.28" width="10.65" height="10.65" transform="matrix(0.96, 0.27, -0.27, 0.96, 53.46, -135.21)"/><rect class="cls-10" x="527.61" y="125.5" width="10.65" height="10.65" transform="translate(55.16 -139.12) rotate(15.67)"/><rect class="cls-6" x="542.65" y="129.72" width="10.65" height="10.65" transform="matrix(0.96, 0.27, -0.27, 0.96, 56.86, -143.02)"/><rect class="cls-6" x="478.32" y="127.71" width="10.65" height="10.65" transform="translate(53.92 -125.72) rotate(15.67)"/><rect class="cls-6" x="493.36" y="131.93" width="10.65" height="10.65" transform="translate(55.62 -129.62) rotate(15.67)"/><rect class="cls-6" x="508.4" y="136.15" width="10.65" height="10.65" transform="translate(57.32 -133.53) rotate(15.67)"/><rect class="cls-6" x="523.44" y="140.37" width="10.65" height="10.65" transform="translate(59.02 -137.44) rotate(15.67)"/><rect class="cls-6" x="538.48" y="144.59" width="10.65" height="10.65" transform="translate(60.72 -141.34) rotate(15.67)"/><rect class="cls-6" x="474.14" y="142.58" width="10.65" height="10.65" transform="translate(57.79 -124.03) rotate(15.67)"/><rect class="cls-6" x="489.18" y="146.8" width="10.65" height="10.65" transform="translate(59.49 -127.94) rotate(15.67)"/><rect class="cls-6" x="504.23" y="151.02" width="10.65" height="10.65" transform="translate(61.19 -131.85) rotate(15.67)"/><rect class="cls-6" x="519.27" y="155.24" width="10.65" height="10.65" transform="matrix(0.96, 0.27, -0.27, 0.96, 62.89, -135.75)"/><rect class="cls-6" x="534.31" y="159.46" width="10.65" height="10.65" transform="translate(64.59 -139.66) rotate(15.67)"/><path class="cls-10" d="M583.53,97.73a2.73,2.73,0,0,1-.38-.74,2.69,2.69,0,0,1,1.71-3.4l11.94-4a2.7,2.7,0,0,1,1.69,5.12L586.55,98.7A2.69,2.69,0,0,1,583.53,97.73Z"/><path class="cls-10" d="M568.89,76.77a2.72,2.72,0,0,1-.24-2.77l4.55-9.37A2.7,2.7,0,0,1,578.05,67l-4.56,9.37a2.69,2.69,0,0,1-3.6,1.24A2.72,2.72,0,0,1,568.89,76.77Z"/><path class="cls-10" d="M584.68,124.52a2.69,2.69,0,0,1,3.42-4l9.47,4.92a2.69,2.69,0,0,1-2.49,4.78l-9.47-4.93A2.5,2.5,0,0,1,584.68,124.52Z"/><g id="man2"><g id="Layer2_10_FILL" data-name="Layer2 10 FILL"><path class="cls-11" d="M786.6,299.67c1.09-15.8,10.11-30.22,20.77-30.5,17.91.44,24.42,5.49,37.13,15.62,14,11.14,22.64,26.91,31.39,47.06,9.18,21,15.66,54,18.91,80l-56,15.92-4.24-6.5q-8.05-12.3-14.76-17.11a27.76,27.76,0,0,0-7.9-4q-10-5.19-17.55-22.15a94.89,94.89,0,0,1-8.2-35.55A383.93,383.93,0,0,1,786.6,299.67Z"/></g><path class="cls-12" d="M669.71,269.17q-11.64.19-22.86,10.66Q636.24,289.88,628.56,307q-17.25,38.19-9.35,78.41L634,447.7l21.48,1.71c1.94,6.94,9.38.57,13.35,6.37,76.84,34.18,159.25,35.83,159,36,3.85-5.77,29.49-106.37,29.49-106.37q7.9-40.23-9.35-78.41-7.7-17.07-18.29-27.12-11.22-10.45-22.86-10.66H669.71Z"/><g id="Layer2_10_FILL-2" data-name="Layer2 10 FILL"><path class="cls-11" d="M684.84,299.67c-1.08-15.8-3.32-30.37-14-30.64-18.22,1.37-31.2,5.63-43.91,15.76-14,11.14-22.64,26.91-31.4,47.06-9.17,21-19.78,57.22-21.41,84.89l58.47,11,4.24-6.5c5.37-8.2,35.19-31.92,40.22-43.22s8.79-23.15,9.23-35.55C686.79,328.66,686,315.29,684.84,299.67Z"/></g><g id="Layer2_13_FILL" data-name="Layer2 13 FILL"><path class="cls-13" d="M791.51,270.59l.31-1.42H682.29l.31,1.42a40.46,40.46,0,0,0,15,23.15,42.37,42.37,0,0,0,26.5,8.94h26.09a43.18,43.18,0,0,0,16.32-3.15,42.43,42.43,0,0,0,13.71-9A40.22,40.22,0,0,0,791.51,270.59Z"/></g><g id="Layer2_17_FILL" data-name="Layer2 17 FILL"><path class="cls-14" d="M775.05,263c0-4.81.62-49.36.62-49.36l-78.46,3,.22,46.57c-.35,5.82-7.85,5.82-7.85,5.82,5.26,6,25.56,14.4,47.85,12.86,24.09-.2,39.55-7.45,46.07-12.67C783.5,269.2,775,269.35,775.05,263Z"/></g><g id="Layer2_14_FILL" data-name="Layer2 14 FILL"><path class="cls-14" d="M701.51,288.56a35.61,35.61,0,0,0,22.55,7.72h26.09A35.57,35.57,0,0,0,775.61,286a34.52,34.52,0,0,0,9.56-16.86H688.94A33.94,33.94,0,0,0,701.51,288.56Z"/></g><g id="Layer2_18_FILL" data-name="Layer2 18 FILL"><path class="cls-14" d="M767,224.08a7.34,7.34,0,0,0,5.82,2.59,7.22,7.22,0,0,0,5.61-3,9.78,9.78,0,0,0,2.18-6.65,10.11,10.11,0,0,0-2.6-6.55,7.47,7.47,0,0,0-5.82-2.49,7.66,7.66,0,0,0-5.61,3,9.13,9.13,0,0,0-2.18,6.65A9.32,9.32,0,0,0,767,224.08Z"/></g><g id="Layer2_19_FILL" data-name="Layer2 19 FILL"><path class="cls-14" d="M689,218a9.46,9.46,0,0,0,2.6,6.55,7,7,0,0,0,5.82,2.49,7.29,7.29,0,0,0,5.61-2.91,10,10,0,0,0,2.08-6.65,9.72,9.72,0,0,0-2.6-6.54,7.45,7.45,0,0,0-5.82-2.5,7.29,7.29,0,0,0-5.61,2.91A9.37,9.37,0,0,0,689,218Z"/></g><g id="Layer2_20_FILL" data-name="Layer2 20 FILL"><path class="cls-14" d="M775.51,231.39c-.14,9.79-2.45,16.56-8.83,23.51a32,32,0,0,1-23.49,10.84l-8.77.44-1.14.06-1.41.07a32.35,32.35,0,0,1-24.22-9.13,35.79,35.79,0,0,1-11-25V208.42c-.34-9.91,2.3-16.44,9-23.76s14.67-11.7,24.5-12h9.48c9.83-.37,16.81,3,24,9.79A34.8,34.8,0,0,1,775,207.46l.38,16.9.1,4.72Z"/></g><g id="Layer2_22_FILL" data-name="Layer2 22 FILL"><path class="cls-15" d="M747.15,185.31l2.49,66.2,30.87-3.22-2.29-60.69Z"/></g><path class="cls-16" d="M775.51,231.39c-.14,9.79-.34,18-6.72,25s-13.93,9.53-23.22,9.8H734.42c-7.42-.58-16.07-2.18-22.5-7.89A35.76,35.76,0,0,1,700,233.16l-.16-24,7.13.38.1,9.31a15.49,15.49,0,0,0,4.59,10.42,18.61,18.61,0,0,0,10.73,5.32c5.42.7,11.31-4,21.05-4.16,10.44-.21,10.82,2.86,19,3a19.77,19.77,0,0,0,13.07-4.29Z"/><g id="Layer2_24_FILL" data-name="Layer2 24 FILL"><path class="cls-14" d="M751.2,228.34a8.48,8.48,0,0,0,3.95-2.81,7,7,0,0,0,1.46-4.57,7.33,7.33,0,0,0-3.74-6.13c-2.71-1.67-4.27-3.57-4.68-5.72l-3.85,4.68q-3.84,5.09-3.74,7.69a11.64,11.64,0,0,0,2.5,6.65,7.24,7.24,0,0,0,5.25,2.38A7.68,7.68,0,0,1,751.2,228.34Z"/></g><path class="cls-14" d="M748.72,240.44a9.22,9.22,0,0,1-4.28,2.33,11.62,11.62,0,0,1-5,.15,10.7,10.7,0,0,1-4.59-2,8.31,8.31,0,0,1-2.92-4,.53.53,0,0,1,.34-.66.52.52,0,0,1,.51.12h0a13.7,13.7,0,0,0,7.18,3.74,16,16,0,0,0,4,.24,18.52,18.52,0,0,0,4.16-.81h0a.52.52,0,0,1,.52.87Z"/><ellipse class="cls-17" cx="732.81" cy="212.72" rx="2.45" ry="4.4"/><ellipse class="cls-17" cx="761.17" cy="212.7" rx="2.45" ry="4.4"/><path class="cls-11" d="M723.18,354.81c2.61,2,10.78,9.78,16,14.82-.5,4.84.41,10.32-2.17,14.55-19.55,32-32.22,51.84-70.8,70.38-6.55,3.14-3-.41-11.29-3.33-21.06-7.41-52.88-8.34-72.86,0-5.76,2.41-7.82-10.29-9.52-18.25-4.89-22.78,14.65-43.94,32.55-45.57C655.43,382.86,695.79,384.21,723.18,354.81Z"/><path class="cls-11" d="M805.55,331.71c-2.62,2-10.78,9.78-16,14.81q.75,7.28,2.18,14.56c7.38,37.72,13,56.51,42.84,81.7,14,11.8,46.49,12.79,55-6.77s7.65-43.69-16-50.2C847.1,378.49,824.54,352.1,805.55,331.71Z"/></g><path class="cls-18" d="M790,260.28v0h0Z"/><rect class="cls-14" x="789.79" y="321.94" width="26.58" height="8.15" rx="2.31" transform="translate(1664.21 227.64) rotate(151.39)"/><rect class="cls-14" x="795.61" y="329.07" width="22.72" height="8.15" rx="2.31" transform="translate(1674.93 239.16) rotate(151.39)"/><rect class="cls-14" x="801.66" y="336.19" width="18.4" height="8.15" rx="2.08" transform="translate(1685.64 250.69) rotate(151.39)"/><line class="cls-19" x1="795.79" y1="292.09" x2="795.79" y2="325.6"/><rect class="cls-14" x="787.83" y="314.81" width="22.72" height="8.15" rx="2.31" transform="translate(1653.5 216.12) rotate(151.39)"/><rect class="cls-20" x="734.48" y="324.21" width="77.88" height="89.29" rx="2.12" transform="translate(1546.84 737.7) rotate(-180)"/><circle class="cls-6" cx="773.42" cy="368.85" r="6.58"/><circle class="cls-21" cx="746.03" cy="334.09" r="2.69"/><rect class="cls-14" x="720.98" y="353.05" width="22.72" height="8.15" rx="2.31" transform="translate(1464.69 714.25) rotate(180)"/><rect class="cls-14" x="719.06" y="361.17" width="26.58" height="8.15" rx="2.31" transform="translate(1464.69 730.48) rotate(180)"/><rect class="cls-14" x="720.98" y="369.29" width="22.72" height="8.15" rx="2.31" transform="translate(1464.69 746.72) rotate(-180)"/><rect class="cls-14" x="723.14" y="377.41" width="18.4" height="8.15" rx="2.08" transform="translate(1464.69 762.96) rotate(-180)"/><path class="cls-22" d="M227.77,333.3c-17.5.05-31.66,17.54-16.76,25.46,11.91,6.33,68.93,8.54,92.9-12.57,7.69-6.78-1.76-22.08-4.34-30.27C295.84,304.27,276.54,333.18,227.77,333.3Z"/><path class="cls-10" d="M389.08,492.92c0,4.18-133.31,5.3-133.16.6,2.44-9,25.57-76.81,14.74-116.15-5-18.38,2.07-52.19,16.64-60.72l.24-.13a66.05,66.05,0,0,1,32.72-8.68c11.17-.08,18.68.48,30.18,5.81.07,0,34.82,16.94,30.57,45-1.61,10.62-5.92,18.19-8.05,31.9C365.92,435.87,389.48,491.24,389.08,492.92Z"/><path id="ipad" class="cls-7" d="M352,468.32l-54.61-.21a4.55,4.55,0,0,1-4.25-3.57L277.52,384.3a2.83,2.83,0,0,1,2.86-3.55L335,381a4.56,4.56,0,0,1,4.26,3.57l15.65,80.24A2.83,2.83,0,0,1,352,468.32Z"/><path class="cls-23" d="M332.05,299.83l-.74-28.06-26.75.85.88,27.61c0,6.25-.5,8.5-6.88,11.83-7.92,4.13,8,4.81,20.39,4.42s28.79-3.82,22.2-6C335.46,308.55,331.72,307.49,332.05,299.83Z"/><path class="cls-22" d="M347.29,312.36c-9.4,5.09-21.82,8.2-36.13,8.31-9.53.07-16.07-2.82-19.72-6.24,10.26-5.72,17.29-8,28.84-8.07C330.85,306.29,337.06,307.18,347.29,312.36Z"/><path class="cls-22" d="M366.73,378.19C382.81,395.77,392,401.9,406,431.85a4.88,4.88,0,0,0,5.86,2.59c7.2-2.22,20.76-8.18,16.19-20.74-5.44-15-26.4-57.23-49.84-80.18-6.43-6.3-19-17.08-23.11-6.61C349.16,341.93,358.2,368.86,366.73,378.19Z"/><path class="cls-22" d="M388.11,401.36c-.33-.62,7,9.75,1,12.71-13.42,6.61-34.39,11.32-50.9,12.18l-.64,9.85c6.56,1.07,66.81,7.7,85-7.21C432.28,420.94,406.37,378.57,388.11,401.36Z"/><g id="Layer1_2_FILL" data-name="Layer1 2 FILL"><path class="cls-22" d="M349.6,427.27l-2.88,9-13.4,1.59a46.26,46.26,0,0,1-9.85.13,34.64,34.64,0,0,1-7.4-1.09c-1.15-.4-3.4-1-6.77-1.89q-4.33-1.37-5.3-2.27a5.12,5.12,0,0,1-1.16-4.4c-.81-.56-1.86-1.24-3.15-2.05a6.93,6.93,0,0,1-1.78-2c-.17-1.73.65-2.53,2.46-2.37l21.14.62-3.14-2.63c-2.38-1.88-4.18-3.42-5.4-4.6-1-1.13-1.23-2-.7-2.69s1.63-.81,3.06-.28a72.94,72.94,0,0,1,11,4.17q3.17,1.47,8.49,3.63Z"/></g><path class="cls-22" d="M185.33,269.56s21.49,58.5,42.44,63.74c16.95,4.25,13.95,29.82-11.91,27.21s-39.46-88.35-39.46-88.35Z"/><path class="cls-24" d="M168.28,239.76l-7.63,1.94a3,3,0,0,0-2,1.64l-3.17,6.73a1.29,1.29,0,0,0,.62,1.71l8.15,3.81,7.23-4.89-.65-9.29Z"/><path class="cls-22" d="M178.31,241.83a4.48,4.48,0,0,0-2.24-2.73l-11.36-5.88a2.44,2.44,0,0,0-2.71.51l-5.73,5.75a1.46,1.46,0,0,0-.38,1.42h0c1.68,1.15,5.16-1.14,7-3.44,0-.05,4.12,2.58,6,3.81a2.23,2.23,0,0,1,1,1.73l.47,6.71c.08,1.11-.48,1.6-1.54,1.93l-2,.65a2.4,2.4,0,0,1-2.43-.6c-2.37-2.37-8.24-7.28-9.07-5.35-.9,2.11-.47,4.16,7.87,13.45a3,3,0,0,1,.52,1c.26.77.29,3.2,4.08,7.35,4.11,4.5,8.47,4.17,8.47,4.17l9.25-1.84Z"/><path class="cls-25" d="M353.74,244.65c-4.17,23.69-25.41,39.7-47.44,35.75S269.8,254,274,230.34s16.57-40.75,47.44-35.75S357.91,221,353.74,244.65Z"/><path class="cls-22" d="M333.21,251.79H342a3.29,3.29,0,0,1,3.29,3.29v12a3.29,3.29,0,0,1-3.29,3.29h-8.76a9.29,9.29,0,0,1-9.29-9.29v0a9.29,9.29,0,0,1,9.29-9.29Z" transform="translate(655.57 538.72) rotate(-177.11)"/><path class="cls-26" d="M279.27,280a9.51,9.51,0,1,1,10.91-7.86h0a9.53,9.53,0,0,1-9.36,8A9,9,0,0,1,279.27,280Zm-2.84-15.44a7.46,7.46,0,0,0,3.17,13.42,7.35,7.35,0,0,0,5.56-1.31,7.42,7.42,0,0,0,3-4.86h0A7.47,7.47,0,0,0,282,263.2a8.34,8.34,0,0,0-1.21-.1A7.47,7.47,0,0,0,276.43,264.51Z"/><path class="cls-25" d="M343.63,213.48c-.25-24-26.67-32.87-44.84-28.6-15.91,3.74-26.43,17.31-29.4,5.86,0,0-13.48,10.2-12.51,24.43s12.71,20.87,24.58,18c7.9-1.93,16.79-13.29,32.31-18.92C326.65,209.55,343.63,213.48,343.63,213.48Z"/><path class="cls-22" d="M340.93,254.19c-3.79,23.33-20.78,40-38,37.2s-28-24-24.24-47.3,20.43-37.83,37.61-35S344.71,230.86,340.93,254.19Z"/><path class="cls-27" d="M275.44,221.56,264,286.81l30.85,3.31,10.46-59.83Z"/><path class="cls-22" d="M315.23,242.23,318,229.87l-11-1-2.77,12.36c-1.19,6.46-5.51,11.57-8.41,14.36a3.85,3.85,0,0,0-.3,5.15c2,2.52,4.38,6.3,4,9.43l-1.58,7.37,11,1,1.58-7.37c.4-3.13-2-6.91-4-9.43a3.85,3.85,0,0,1,.3-5.15C309.72,253.8,314,248.69,315.23,242.23Z"/><path class="cls-26" d="M331.9,289a9.51,9.51,0,1,1,10.91-7.86h0a9.52,9.52,0,0,1-9.38,8A10.05,10.05,0,0,1,331.9,289Zm8.89-8.19a7.46,7.46,0,1,0-14.73-2.39,7.46,7.46,0,1,0,14.73,2.39Z"/><ellipse class="cls-28" cx="318.53" cy="252.72" rx="4.58" ry="2.72" transform="translate(22.16 531.1) rotate(-81.64)"/><path class="cls-24" d="M294.43,274.49a7.91,7.91,0,0,0,7.73,4.3,8.67,8.67,0,0,0,4.45-1.53,6.86,6.86,0,0,0,2.73-3.63,1,1,0,0,0-.71-1.28,1.14,1.14,0,0,0-.55,0l-.1,0c-1.3.34-2.33.63-3.33.83a21.56,21.56,0,0,1-2.82.41,16.54,16.54,0,0,1-2.8-.05c-1-.07-2.07-.29-3.42-.49l-.08,0a1,1,0,0,0-1.18.87A1,1,0,0,0,294.43,274.49Z"/><ellipse class="cls-28" cx="292.37" cy="248.47" rx="4.58" ry="2.72" transform="translate(4.01 501.59) rotate(-81.64)"/><path class="cls-25" d="M348.51,221.49s-17.07-12.67-32.85-15.23-32,4.68-32,4.68l-7,32.8,2,1.17,9-23.55a4.36,4.36,0,0,1,4.61-2.79L331.86,225a4.36,4.36,0,0,1,3.5,4.1l0,23.87,10.22.84Z"/><path class="cls-29" d="M75.38,219a2.47,2.47,0,0,1-.32.77,2.68,2.68,0,0,1-3.7.89l-10.72-6.57a2.69,2.69,0,0,1,2.81-4.59L74.17,216A2.68,2.68,0,0,1,75.38,219Z"/><path class="cls-29" d="M68.83,243.69a2.72,2.72,0,0,1-2,2l-10.1,2.57A2.69,2.69,0,1,1,55.45,243l10.09-2.57a2.69,2.69,0,0,1,3.28,1.94A2.77,2.77,0,0,1,68.83,243.69Z"/><path class="cls-29" d="M95.1,200.8a2.7,2.7,0,0,1-5.25-.05L87.5,190.34a2.7,2.7,0,0,1,5.26-1.19l2.35,10.41A2.88,2.88,0,0,1,95.1,200.8Z"/><path class="cls-30" d="M87,222.12A5.67,5.67,0,0,0,86.7,226l8.6,30.82,1.79,6.41a5.71,5.71,0,0,0,7,4l9.61-2.68h0l49.93-13.92a5.74,5.74,0,0,0,4-7.05l-3-10.92h0l-5.78-20.74-1.56-5.56a5.66,5.66,0,0,0-2.66-3.42h0a5.67,5.67,0,0,0-4.38-.56L90.67,218.94A5.65,5.65,0,0,0,87,222.12"/><path class="cls-31" d="M88.71,223.54l35.48,18.61a6.13,6.13,0,0,0,8-2.23l22.39-37a5.67,5.67,0,0,0-4.38-.56L90.67,218.94A5.65,5.65,0,0,0,87,222.12,4,4,0,0,0,88.71,223.54Z"/><path class="cls-28" d="M582.15,365c-32.87-60.43-27.32-94.47-35.89-123.31-13.77-46.34-70.82-46.78-85.76.65-8.9,28.24-3.9,66.11-35.34,125.93C418.55,381.2,591.2,381.67,582.15,365Z"/><path class="cls-28" d="M591.78,398.6c0,40.65-39,66.48-87.17,66.48s-87.17-25.83-87.17-66.48,39-73.6,87.17-73.6S591.78,358,591.78,398.6Z"/><ellipse class="cls-28" cx="503.56" cy="258.44" rx="53.19" ry="44.39" transform="translate(241.95 760.36) rotate(-89.64)"/><path class="cls-32" d="M477.83,255.73h4.89a6.08,6.08,0,0,1,6.08,6.08v4.77a6.08,6.08,0,0,1-6.08,6.08h-4.89a8.46,8.46,0,0,1-8.46-8.46v0a8.46,8.46,0,0,1,8.46-8.46Z"/><path class="cls-32" d="M527.41,255.73h4.89a6.08,6.08,0,0,1,6.08,6.08v4.77a6.08,6.08,0,0,1-6.08,6.08h-4.89a8.46,8.46,0,0,1-8.46-8.46v0a8.46,8.46,0,0,1,8.46-8.46Z" transform="translate(1057.33 528.37) rotate(180)"/><path class="cls-32" d="M515.56,300.35l.12-22.36h-22v22c-.15,5-.63,6.75-6,9.24-6.61,3.09,6.47,11,16.64,11s23.79-8.84,18.44-10.76C518.17,307.81,515.08,306.44,515.56,300.35Z"/><rect class="cls-33" x="493.52" y="280.88" width="22.06" height="33.54"/><path class="cls-24" d="M532.17,253.62c0,21.51-12.84,39-28.68,39s-28.68-17.45-28.68-39,12.84-37,28.68-37S532.17,232.1,532.17,253.62Z"/><g id="Layer2_22_FILL-2" data-name="Layer2 22 FILL"><path class="cls-34" d="M502.15,218.31l2.49,66.2,30.87-3.22-2.29-60.69Z"/></g><path class="cls-24" d="M504.39,263.92c0-2.72,3.69-4.92,4.53-5.92a4.94,4.94,0,0,0-.38-6.15,19.13,19.13,0,0,1-5.93-12.16l-.52-8.69H494v43h10.72Z"/><path class="cls-35" d="M509.17,268.32a6.07,6.07,0,0,1-3,.73,12.54,12.54,0,0,1-3.16-.34,14.24,14.24,0,0,1-3-1,4.76,4.76,0,0,1-2.27-1.86l0-.08a.4.4,0,0,0-.55-.17.39.39,0,0,0-.22.35,4.26,4.26,0,0,0,2.06,3.45,9.82,9.82,0,0,0,7.45,1.58,5,5,0,0,0,3.34-2.12.42.42,0,0,0-.57-.57Z"/><path class="cls-28" d="M516.42,213.57s-2.71,10-18.83,14.56C474.31,234.77,475,244.36,475,244.36s-13.15-11.23,2.56-26.11C493.62,203,516.42,213.57,516.42,213.57Z"/><ellipse class="cls-36" cx="531.37" cy="277.35" rx="5.7" ry="5.47" transform="translate(246.12 804.52) rotate(-89.15)"/><ellipse class="cls-36" cx="475.51" cy="277.35" rx="5.7" ry="5.47" transform="translate(191.09 748.67) rotate(-89.15)"/><path class="cls-24" d="M504,318.08a78.08,78.08,0,0,0,28.44-5.1,69.66,69.66,0,0,0-56.13.29A78.61,78.61,0,0,0,504,318.08Z"/><ellipse class="cls-28" cx="516.38" cy="246.42" rx="4.49" ry="2.67" transform="translate(262.28 759.07) rotate(-89.15)"/><ellipse class="cls-28" cx="492.26" cy="246.44" rx="2.67" ry="4.49" transform="translate(-3.62 7.37) rotate(-0.85)"/><path class="cls-32" d="M454.76,160.58l12.86-15.05,3.17-3.19a5.53,5.53,0,0,1,5.21.29l5.32,3.25,4.18-7.27-5.93-5.8a7.58,7.58,0,0,0-6.42-2.08L464.94,132l7.78-3.88s4.28,1.82,7.75,1.46a7,7,0,0,0,5-2.55l-14.76-3.81-11.95,6.57-13.51,27Z"/><path class="cls-37" d="M478.22,313.94c.57-1.16-10.1-.74-16.14-5.81a4.44,4.44,0,0,0-.77-.54c-12-13.21-27-34.7-31.35-63.07-7.53-49,24.8-83.94,24.8-83.94l-9.54-3.82s-28.62,24.81-40.06,68.69C386.35,297.54,454.76,359,454.76,359l22.89-36.25s-.54-.39-1.48-1.12C477.29,318.12,478,314.4,478.22,313.94Z"/><path class="cls-30" d="M565.37,453.08c-5.07-26.15-30-37.87-61.23-37.52-30.74.35-51.72,19.11-61.3,44.25-.53,1.49-1.43,4.61-1.86,6.25-1.89,7.12-2.48,11.27-3,21.35C438.57,487.41,565.93,454.6,565.37,453.08Z"/><path class="cls-38" d="M593.43,401.57c0-.16,0-.31-.07-.46-7.9-34.2-36.59-68.49-43.36-76.3s-18.07-10.54-25.22-5.91c-9.3,5.88-9,22.3-3.52,27.85,13.24,13.78,36.58,43,45.38,63.71a6,6,0,0,0,.4.8c7.38,17.54,8.61,14,13.39,41.34l11.35-1.24S604.31,436.41,593.43,401.57Z"/><path class="cls-30" d="M562.72,453.5c.4-1.39-1.77-11.29-12.16-29.76-9.8-17.42-2.4-40.48,1.8-59.94,2.37-8.14,4.16-12.41,4.16-18.89,0-23.29-22-37.39-51.8-37.39s-53.89,17.18-53.89,38.36c0,6.72,3.93,13.11,6.69,18.52,6.78,19.39,11.33,42.06,1.67,59.34-10,17.86-14,28.66-16.35,36.07C442.7,460,562.71,453.52,562.72,453.5Z"/><path class="cls-30" d="M478.22,313.94c.57-1.16-10.1-.74-16.14-5.81a4.44,4.44,0,0,0-.77-.54c-12-13.21-27-34.7-31.35-63.07-7.53-49,24.8-83.94,24.8-83.94l-9.54-3.82s-28.62,24.81-40.06,68.69C386.35,297.54,454.76,359,454.76,359l22.89-36.25s-.54-.39-1.48-1.12C477.29,318.12,478,314.4,478.22,313.94Z"/><path class="cls-3" d="M319,493.56c-18.35-.4-55.26-.05-72.69-5.68a11.86,11.86,0,0,0-5.6-.52c-5.74.94-2.3,4.73.22,6.07,2.93,1.56,32.1,9.55,38.63,11s13.15,2.54,19.8,3.35,13.34,1.41,20,1.75c13.41.67,47-1.41,50.32-1.78s23.74-4.33,30.25-6.39c51-10.56,171.83-61.41,248.71-51.08a85.7,85.7,0,0,1,10.19,4c5.67,2.72,11.26,5.82,16.89,9.11s11.3,6.74,17.16,10.07,70.74,41.47,118,39.2,25.83-26.94,19.22-26.86-80.55-7.81-93.64-10.25-37.39-14.75-52.6-25.44S655.46,415.56,630.29,412c-26.13-3.14-97.82,19.46-125.09,29.73C478.69,451.71,403.23,495.42,319,493.56Z"/><path class="cls-3" d="M616.73,468.87c1.16-.32,2.31-.75,3.49-1.16s2.37-.76,3.57-1.13A60.55,60.55,0,0,1,631.2,465l1.9-.25,1.93-.14a38.48,38.48,0,0,1,3.88-.15l2,0,2,.15a38.55,38.55,0,0,1,4,.44l2,.28c.67.09,1.34.15,2,.29l4,.71a26.28,26.28,0,0,1,7.9,3.29,43.17,43.17,0,0,1,3.77,2.56c1.22,1,2.42,2,3.59,3.09a32.37,32.37,0,0,1,3.37,3.6,41.14,41.14,0,0,1,3.07,4.19l-.32,1a25.39,25.39,0,0,1-4.09-.52c-1.32-.27-2.59-.65-3.86-.91s-2.51-.67-3.74-1.07c-.6-.22-1.22-.37-1.83-.55l-1.81-.58c-4.81-1.44-9.38-4.67-14.24-6.26-1.21-.47-2.42-.8-3.64-1.14l-1.83-.52-1.83-.4c-1.23-.31-2.46-.6-3.69-.79l-1.85-.33-1.85-.23a68.81,68.81,0,0,0-7.45-.59c-2.5-.08-5,0-7.6-.17Z"/><path class="cls-2" d="M165.85,427.77c-.71,3.73-1.41,7.19-2,10.59s-1.06,6.65-1.29,9.81c-.5,6.32-.07,12,1.79,16.87.27.59.46,1.21.75,1.8s.6,1.16.89,1.75.71,1.12,1.05,1.7.81,1.09,1.19,1.67a42,42,0,0,0,6.07,6.39c1.11,1.1,2.45,2,3.7,3.08.61.55,1.34,1,2,1.48l2,1.54c1.42,1,2.85,2,4.31,3.05s16.88,7.84,18.38,9.07c-7.5,1.15-29-5.65-36.24-8.86a33.31,33.31,0,0,1-10.14-6.86c-.74-.78-1.51-1.51-2.18-2.37s-1.3-1.73-1.94-2.61-1.11-1.9-1.65-2.85-.89-2-1.32-3a31.6,31.6,0,0,1-1.95-12.69,36.32,36.32,0,0,1,2.6-11.8,40.89,40.89,0,0,1,5.71-10A33.13,33.13,0,0,1,165.85,427.77Z"/><path class="cls-6" d="M655.51,150.8c0,1.39-.34,5.54-4.24,12.11a78.05,78.05,0,0,0,14.87-7.8,46.3,46.3,0,0,0,11.46,1.41c20.08,0,36.36-12.46,36.36-27.84s-16.28-27.84-36.36-27.84-36.37,12.47-36.37,27.84C641.23,137.7,646.83,145.71,655.51,150.8Zm31.86-22.48a3.07,3.07,0,1,1,3.07,3.08A3.06,3.06,0,0,1,687.37,128.32ZM674.55,128a3.08,3.08,0,1,1,3.08,3.07A3.07,3.07,0,0,1,674.55,128Zm-8.94,3.39a3.08,3.08,0,1,1,3.07-3.08A3.08,3.08,0,0,1,665.61,131.4Z"/><path class="cls-22" d="M176.07,239.1a4.48,4.48,0,0,1,2.24,2.73l7.22,28.68-9.25,1.84s-4.36.33-8.47-4.17c-3.79-4.15-3.82-6.58-4.08-7.35a3,3,0,0,0-.52-1c-8.34-9.29-8.77-11.34-7.87-13.45.83-1.93,6.7,3,9.07,5.35a2.4,2.4,0,0,0,2.43.6l2-.65c1.06-.33,1.62-.82,1.54-1.93L170,243a2.23,2.23,0,0,0-1-1.73Z"/></g></g></svg>