<svg id="_1EnrollProgress_DialogV2_Feedback" data-name="1EnrollProgress(DialogV2)Feedback" xmlns="http://www.w3.org/2000/svg" viewBox="0 0 32 32"><defs><style>.cls-1{fill:gray;}</style></defs><title>MDL2icon_E704</title><path class="cls-1" d="M6.81,3.61A13,13,0,0,0,6.81,22L5.39,23.41a15.06,15.06,0,0,1-3.26-4.86A14.79,14.79,0,0,1,1,12.8,14.79,14.79,0,0,1,2.13,7,15.07,15.07,0,0,1,5.39,2.19ZM11,7.84a7,7,0,0,0,0,9.91L9.64,19.16a9,9,0,0,1-2-2.91,9,9,0,0,1,0-6.89,9,9,0,0,1,2-2.91Zm4,2h2v18H15Zm7.36-3.36a9,9,0,0,1,2,2.91,9,9,0,0,1,0,6.89,9,9,0,0,1-2,2.91L21,17.75a6.83,6.83,0,0,0,1.51-2.27,7.16,7.16,0,0,0,0-5.37A6.84,6.84,0,0,0,21,7.84Zm4.25-4.25A15.1,15.1,0,0,1,29.87,7,14.81,14.81,0,0,1,31,12.8a14.81,14.81,0,0,1-1.13,5.75,15.09,15.09,0,0,1-3.26,4.86L25.19,22a13,13,0,0,0,0-18.37Z"/></svg>