<svg id="_1EnrollProgress_DialogV2_Feedback" data-name="1EnrollProgress(DialogV2)Feedback" xmlns="http://www.w3.org/2000/svg" viewBox="0 0 32 32"><defs><style>.cls-1{fill:gray;}</style></defs><title>MDL2icon_EA18</title><path class="cls-1" d="M16,0a10.89,10.89,0,0,1,1.52.1,9,9,0,0,1,1.4.31,9.4,9.4,0,0,1,1.34.53,14.4,14.4,0,0,1,1.33.74,13.63,13.63,0,0,0,2.25,1.17,14,14,0,0,0,2.28.7,17.56,17.56,0,0,0,2.38.34Q29.7,4,31,4v8a16.07,16.07,0,0,1-.57,4.33,18.2,18.2,0,0,1-1.58,3.88,21,21,0,0,1-2.38,3.46,30.11,30.11,0,0,1-3,3.05,35.33,35.33,0,0,1-3.4,2.66q-1.79,1.23-3.6,2.28L16,32l-.48-.28q-1.81-1-3.6-2.28a35.09,35.09,0,0,1-3.4-2.66,29.9,29.9,0,0,1-3-3.05,20.93,20.93,0,0,1-2.38-3.46,18.15,18.15,0,0,1-1.58-3.88A16,16,0,0,1,1,12V4q1.3,0,2.52-.09a17.58,17.58,0,0,0,2.38-.34,14,14,0,0,0,2.28-.7,13.63,13.63,0,0,0,2.25-1.17A10.84,10.84,0,0,1,13.08.41,9.78,9.78,0,0,1,16,0ZM29,6a19.49,19.49,0,0,1-4.46-.75,15.75,15.75,0,0,1-4.1-1.89,8.44,8.44,0,0,0-2.12-1A8,8,0,0,0,16,2a8,8,0,0,0-2.32.32,8.42,8.42,0,0,0-2.12,1,15.75,15.75,0,0,1-4.1,1.89A19.5,19.5,0,0,1,3,6v6a13.76,13.76,0,0,0,.52,3.81A16.92,16.92,0,0,0,5,19.3a18.74,18.74,0,0,0,2.16,3.13A28.6,28.6,0,0,0,9.8,25.2a31.09,31.09,0,0,0,3,2.41q1.58,1.11,3.18,2,1.59-.92,3.18-2a31.33,31.33,0,0,0,3-2.41,28.83,28.83,0,0,0,2.69-2.77A18.86,18.86,0,0,0,27,19.3a17,17,0,0,0,1.43-3.48A13.79,13.79,0,0,0,29,12Z"/></svg>